<?xml version="1.0" encoding="UTF-8" standalone="no"?>
<!DOCTYPE svg PUBLIC "-//W3C//DTD SVG 1.1//EN"
 "http://www.w3.org/Graphics/SVG/1.1/DTD/svg11.dtd">
<!-- Generated by graphviz version 12.2.1 (20241206.2353)
 -->
<!-- Pages: 1 -->
<svg width="337pt" height="555pt"
 viewBox="0.00 0.00 337.11 555.00" xmlns="http://www.w3.org/2000/svg" xmlns:xlink="http://www.w3.org/1999/xlink">
<g id="graph0" class="graph" transform="scale(1 1) rotate(0) translate(4 551)">
<polygon fill="white" stroke="none" points="-4,4 -4,-551 333.11,-551 333.11,4 -4,4"/>
<g id="clust1" class="cluster">
<title>cluster_8eb9872f161a4ef5b708a32f431a0abf</title>
<polygon fill="none" stroke="grey" points="8,-114 8,-457.5 312,-457.5 312,-114 8,-114"/>
<text text-anchor="middle" x="160" y="-440.2" font-family="Times New Roman,serif" font-size="14.00" fill="grey">Thread 0</text>
</g>
<!-- d8f967fda0cb48cd9cb6ef83bb81905d -->
<g id="node1" class="node">
<title>d8f967fda0cb48cd9cb6ef83bb81905d</title>
<polygon fill="none" stroke="black" points="16.25,-310 16.25,-424.5 99.75,-424.5 99.75,-310 16.25,-310"/>
<text text-anchor="middle" x="37.12" y="-407.2" font-family="Times New Roman,serif" font-size="14.00"> </text>
<polyline fill="none" stroke="black" points="58,-400 58,-424.5"/>
<text text-anchor="middle" x="78.88" y="-407.2" font-family="Times New Roman,serif" font-size="14.00"> </text>
<polyline fill="none" stroke="black" points="16.25,-400 99.75,-400"/>
<text text-anchor="middle" x="58" y="-382.7" font-family="Times New Roman,serif" font-size="14.00">2: Biquad_0</text>
<polyline fill="none" stroke="black" points="16.25,-375.5 99.75,-375.5"/>
<text text-anchor="middle" x="58" y="-358.2" font-family="Times New Roman,serif" font-size="14.00">filter_type: </text>
<text text-anchor="middle" x="58" y="-341.7" font-family="Times New Roman,serif" font-size="14.00">type: bypass</text>
<polyline fill="none" stroke="black" points="16.25,-334.5 99.75,-334.5"/>
<text text-anchor="middle" x="37.12" y="-317.2" font-family="Times New Roman,serif" font-size="14.00"> </text>
<polyline fill="none" stroke="black" points="58,-310 58,-334.5"/>
<text text-anchor="middle" x="78.88" y="-317.2" font-family="Times New Roman,serif" font-size="14.00"> </text>
</g>
<!-- bcaaad1b2e28442a8871cf4a3415deef -->
<g id="node4" class="node">
<title>bcaaad1b2e28442a8871cf4a3415deef</title>
<polygon fill="none" stroke="black" points="112.25,-122.5 112.25,-237 195.75,-237 195.75,-122.5 112.25,-122.5"/>
<text text-anchor="middle" x="122.62" y="-219.7" font-family="Times New Roman,serif" font-size="14.00"> </text>
<polyline fill="none" stroke="black" points="133,-212.5 133,-237"/>
<text text-anchor="middle" x="143.38" y="-219.7" font-family="Times New Roman,serif" font-size="14.00"> </text>
<polyline fill="none" stroke="black" points="153.75,-212.5 153.75,-237"/>
<text text-anchor="middle" x="164.12" y="-219.7" font-family="Times New Roman,serif" font-size="14.00"> </text>
<polyline fill="none" stroke="black" points="174.5,-212.5 174.5,-237"/>
<text text-anchor="middle" x="184.88" y="-219.7" font-family="Times New Roman,serif" font-size="14.00"> </text>
<polyline fill="none" stroke="black" points="112.25,-212.5 195.75,-212.5"/>
<text text-anchor="middle" x="154" y="-195.2" font-family="Times New Roman,serif" font-size="14.00">5: Biquad_3</text>
<polyline fill="none" stroke="black" points="112.25,-188 195.75,-188"/>
<text text-anchor="middle" x="154" y="-170.7" font-family="Times New Roman,serif" font-size="14.00">filter_type: </text>
<text text-anchor="middle" x="154" y="-154.2" font-family="Times New Roman,serif" font-size="14.00">type: bypass</text>
<polyline fill="none" stroke="black" points="112.25,-147 195.75,-147"/>
<text text-anchor="middle" x="122.62" y="-129.7" font-family="Times New Roman,serif" font-size="14.00"> </text>
<polyline fill="none" stroke="black" points="133,-122.5 133,-147"/>
<text text-anchor="middle" x="143.38" y="-129.7" font-family="Times New Roman,serif" font-size="14.00"> </text>
<polyline fill="none" stroke="black" points="153.75,-122.5 153.75,-147"/>
<text text-anchor="middle" x="164.12" y="-129.7" font-family="Times New Roman,serif" font-size="14.00"> </text>
<polyline fill="none" stroke="black" points="174.5,-122.5 174.5,-147"/>
<text text-anchor="middle" x="184.88" y="-129.7" font-family="Times New Roman,serif" font-size="14.00"> </text>
</g>
<!-- d8f967fda0cb48cd9cb6ef83bb81905d&#45;&gt;bcaaad1b2e28442a8871cf4a3415deef -->
<g id="edge8" class="edge">
<title>d8f967fda0cb48cd9cb6ef83bb81905d:s&#45;&gt;bcaaad1b2e28442a8871cf4a3415deef:n</title>
<path fill="none" stroke="black" d="M37.12,-309.5C37.12,-264.09 108.56,-283.05 120.84,-248.7"/>
<polygon fill="black" stroke="black" points="124.27,-249.42 122.39,-238.99 117.36,-248.32 124.27,-249.42"/>
</g>
<!-- d8f967fda0cb48cd9cb6ef83bb81905d&#45;&gt;bcaaad1b2e28442a8871cf4a3415deef -->
<g id="edge9" class="edge">
<title>d8f967fda0cb48cd9cb6ef83bb81905d:s&#45;&gt;bcaaad1b2e28442a8871cf4a3415deef:n</title>
<path fill="none" stroke="black" d="M78.88,-309.5C78.88,-270.73 131.39,-278.29 141.65,-248.57"/>
<polygon fill="black" stroke="black" points="145.06,-249.42 143.14,-239 138.14,-248.34 145.06,-249.42"/>
</g>
<!-- 5f8f2b330b404524baca9bd51037ff9f -->
<g id="node2" class="node">
<title>5f8f2b330b404524baca9bd51037ff9f</title>
<polygon fill="none" stroke="black" points="118.25,-310 118.25,-424.5 201.75,-424.5 201.75,-310 118.25,-310"/>
<text text-anchor="middle" x="159.62" y="-407.2" font-family="Times New Roman,serif" font-size="14.00"> </text>
<polyline fill="none" stroke="black" points="118.25,-400 201.75,-400"/>
<text text-anchor="middle" x="160" y="-382.7" font-family="Times New Roman,serif" font-size="14.00">3: Biquad_1</text>
<polyline fill="none" stroke="black" points="118.25,-375.5 201.75,-375.5"/>
<text text-anchor="middle" x="160" y="-358.2" font-family="Times New Roman,serif" font-size="14.00">filter_type: </text>
<text text-anchor="middle" x="160" y="-341.7" font-family="Times New Roman,serif" font-size="14.00">type: bypass</text>
<polyline fill="none" stroke="black" points="118.25,-334.5 201.75,-334.5"/>
<text text-anchor="middle" x="159.62" y="-317.2" font-family="Times New Roman,serif" font-size="14.00"> </text>
</g>
<!-- 5f8f2b330b404524baca9bd51037ff9f&#45;&gt;bcaaad1b2e28442a8871cf4a3415deef -->
<g id="edge10" class="edge">
<title>5f8f2b330b404524baca9bd51037ff9f:s&#45;&gt;bcaaad1b2e28442a8871cf4a3415deef:n</title>
<path fill="none" stroke="black" d="M159.62,-309.5C159.62,-281.57 163.04,-271.99 163.92,-248.8"/>
<polygon fill="black" stroke="black" points="167.42,-249.08 164.1,-239.01 160.42,-248.95 167.42,-249.08"/>
</g>
<!-- 68bea47647ed4903993da32df86e4fb9 -->
<g id="node3" class="node">
<title>68bea47647ed4903993da32df86e4fb9</title>
<polygon fill="none" stroke="black" points="220.25,-310 220.25,-424.5 303.75,-424.5 303.75,-310 220.25,-310"/>
<text text-anchor="middle" x="234.12" y="-407.2" font-family="Times New Roman,serif" font-size="14.00"> </text>
<polyline fill="none" stroke="black" points="248,-400 248,-424.5"/>
<text text-anchor="middle" x="261.88" y="-407.2" font-family="Times New Roman,serif" font-size="14.00"> </text>
<polyline fill="none" stroke="black" points="275.75,-400 275.75,-424.5"/>
<text text-anchor="middle" x="289.62" y="-407.2" font-family="Times New Roman,serif" font-size="14.00"> </text>
<polyline fill="none" stroke="black" points="220.25,-400 303.75,-400"/>
<text text-anchor="middle" x="262" y="-382.7" font-family="Times New Roman,serif" font-size="14.00">4: Biquad_2</text>
<polyline fill="none" stroke="black" points="220.25,-375.5 303.75,-375.5"/>
<text text-anchor="middle" x="262" y="-358.2" font-family="Times New Roman,serif" font-size="14.00">filter_type: </text>
<text text-anchor="middle" x="262" y="-341.7" font-family="Times New Roman,serif" font-size="14.00">type: bypass</text>
<polyline fill="none" stroke="black" points="220.25,-334.5 303.75,-334.5"/>
<text text-anchor="middle" x="234.12" y="-317.2" font-family="Times New Roman,serif" font-size="14.00"> </text>
<polyline fill="none" stroke="black" points="248,-310 248,-334.5"/>
<text text-anchor="middle" x="261.88" y="-317.2" font-family="Times New Roman,serif" font-size="14.00"> </text>
<polyline fill="none" stroke="black" points="275.75,-310 275.75,-334.5"/>
<text text-anchor="middle" x="289.62" y="-317.2" font-family="Times New Roman,serif" font-size="14.00"> </text>
</g>
<!-- 68bea47647ed4903993da32df86e4fb9&#45;&gt;bcaaad1b2e28442a8871cf4a3415deef -->
<g id="edge11" class="edge">
<title>68bea47647ed4903993da32df86e4fb9:s&#45;&gt;bcaaad1b2e28442a8871cf4a3415deef:n</title>
<path fill="none" stroke="black" d="M234.12,-309.5C234.12,-274.97 195.06,-275.59 186.51,-248.75"/>
<polygon fill="black" stroke="black" points="190,-248.39 185.09,-239 183.07,-249.4 190,-248.39"/>
</g>
<!-- end -->
<g id="node6" class="node">
<title>end</title>
<polygon fill="none" stroke="black" points="109.75,-0.5 109.75,-49.5 246.25,-49.5 246.25,-0.5 109.75,-0.5"/>
<text text-anchor="middle" x="121.12" y="-32.2" font-family="Times New Roman,serif" font-size="14.00">0</text>
<polyline fill="none" stroke="black" points="132.5,-25 132.5,-49.5"/>
<text text-anchor="middle" x="143.88" y="-32.2" font-family="Times New Roman,serif" font-size="14.00">1</text>
<polyline fill="none" stroke="black" points="155.25,-25 155.25,-49.5"/>
<text text-anchor="middle" x="166.62" y="-32.2" font-family="Times New Roman,serif" font-size="14.00">2</text>
<polyline fill="none" stroke="black" points="178,-25 178,-49.5"/>
<text text-anchor="middle" x="189.38" y="-32.2" font-family="Times New Roman,serif" font-size="14.00">3</text>
<polyline fill="none" stroke="black" points="200.75,-25 200.75,-49.5"/>
<text text-anchor="middle" x="212.12" y="-32.2" font-family="Times New Roman,serif" font-size="14.00">4</text>
<polyline fill="none" stroke="black" points="223.5,-25 223.5,-49.5"/>
<text text-anchor="middle" x="234.88" y="-32.2" font-family="Times New Roman,serif" font-size="14.00">5</text>
<polyline fill="none" stroke="black" points="109.75,-25 246.25,-25"/>
<text text-anchor="middle" x="178" y="-7.7" font-family="Times New Roman,serif" font-size="14.00">end</text>
</g>
<!-- 68bea47647ed4903993da32df86e4fb9&#45;&gt;end -->
<g id="edge12" class="edge">
<title>68bea47647ed4903993da32df86e4fb9:s&#45;&gt;end:n</title>
<path fill="none" stroke="black" d="M261.88,-309.5C261.88,-195.97 215.37,-169.17 212.29,-61.4"/>
<polygon fill="black" stroke="black" points="215.79,-61.46 212.15,-51.51 208.79,-61.56 215.79,-61.46"/>
</g>
<!-- 68bea47647ed4903993da32df86e4fb9&#45;&gt;end -->
<g id="edge13" class="edge">
<title>68bea47647ed4903993da32df86e4fb9:s&#45;&gt;end:n</title>
<path fill="none" stroke="black" d="M289.62,-309.5C289.62,-220.84 269,-200.6 250,-114 244.64,-89.58 237.38,-81.49 235.4,-61.37"/>
<polygon fill="black" stroke="black" points="238.9,-61.34 234.94,-51.51 231.91,-61.66 238.9,-61.34"/>
</g>
<!-- bcaaad1b2e28442a8871cf4a3415deef&#45;&gt;end -->
<g id="edge14" class="edge">
<title>bcaaad1b2e28442a8871cf4a3415deef:s&#45;&gt;end:n</title>
<path fill="none" stroke="black" d="M122.62,-121.5C122.62,-93.81 121.49,-84.23 121.19,-61.2"/>
<polygon fill="black" stroke="black" points="124.7,-61.49 121.13,-51.51 117.7,-61.53 124.7,-61.49"/>
</g>
<!-- bcaaad1b2e28442a8871cf4a3415deef&#45;&gt;end -->
<g id="edge15" class="edge">
<title>bcaaad1b2e28442a8871cf4a3415deef:s&#45;&gt;end:n</title>
<path fill="none" stroke="black" d="M143.38,-121.5C143.38,-93.94 143.75,-84.31 143.85,-61.51"/>
<polygon fill="black" stroke="black" points="147.35,-61.52 143.87,-51.51 140.35,-61.51 147.35,-61.52"/>
</g>
<!-- bcaaad1b2e28442a8871cf4a3415deef&#45;&gt;end -->
<g id="edge16" class="edge">
<title>bcaaad1b2e28442a8871cf4a3415deef:s&#45;&gt;end:n</title>
<path fill="none" stroke="black" d="M164.12,-121.5C164.12,-93.8 166.02,-84.23 166.51,-61.21"/>
<polygon fill="black" stroke="black" points="170.01,-61.55 166.61,-51.51 163.01,-61.48 170.01,-61.55"/>
</g>
<!-- bcaaad1b2e28442a8871cf4a3415deef&#45;&gt;end -->
<g id="edge17" class="edge">
<title>bcaaad1b2e28442a8871cf4a3415deef:s&#45;&gt;end:n</title>
<path fill="none" stroke="black" d="M184.88,-121.5C184.88,-93.76 188.29,-84.26 189.17,-61.22"/>
<polygon fill="black" stroke="black" points="192.66,-61.58 189.35,-51.51 185.67,-61.45 192.66,-61.58"/>
</g>
<!-- start -->
<g id="node5" class="node">
<title>start</title>
<polygon fill="none" stroke="black" points="137.38,-497.5 137.38,-546.5 296.62,-546.5 296.62,-497.5 137.38,-497.5"/>
<text text-anchor="middle" x="217" y="-529.2" font-family="Times New Roman,serif" font-size="14.00">start</text>
<polyline fill="none" stroke="black" points="137.38,-522 296.62,-522"/>
<text text-anchor="middle" x="148.75" y="-504.7" font-family="Times New Roman,serif" font-size="14.00">0</text>
<polyline fill="none" stroke="black" points="160.12,-497.5 160.12,-522"/>
<text text-anchor="middle" x="171.5" y="-504.7" font-family="Times New Roman,serif" font-size="14.00">1</text>
<polyline fill="none" stroke="black" points="182.88,-497.5 182.88,-522"/>
<text text-anchor="middle" x="194.25" y="-504.7" font-family="Times New Roman,serif" font-size="14.00">2</text>
<polyline fill="none" stroke="black" points="205.62,-497.5 205.62,-522"/>
<text text-anchor="middle" x="217" y="-504.7" font-family="Times New Roman,serif" font-size="14.00">3</text>
<polyline fill="none" stroke="black" points="228.38,-497.5 228.38,-522"/>
<text text-anchor="middle" x="239.75" y="-504.7" font-family="Times New Roman,serif" font-size="14.00">4</text>
<polyline fill="none" stroke="black" points="251.12,-497.5 251.12,-522"/>
<text text-anchor="middle" x="262.5" y="-504.7" font-family="Times New Roman,serif" font-size="14.00">5</text>
<polyline fill="none" stroke="black" points="273.88,-497.5 273.88,-522"/>
<text text-anchor="middle" x="285.25" y="-504.7" font-family="Times New Roman,serif" font-size="14.00">6</text>
</g>
<!-- start&#45;&gt;d8f967fda0cb48cd9cb6ef83bb81905d -->
<g id="edge1" class="edge">
<title>start:s&#45;&gt;d8f967fda0cb48cd9cb6ef83bb81905d:n</title>
<path fill="none" stroke="black" d="M148.75,-497C148.75,-442.34 52.68,-478.27 38.79,-436.7"/>
<polygon fill="black" stroke="black" points="42.28,-436.37 37.35,-427 35.36,-437.4 42.28,-436.37"/>
</g>
<!-- start&#45;&gt;d8f967fda0cb48cd9cb6ef83bb81905d -->
<g id="edge2" class="edge">
<title>start:s&#45;&gt;d8f967fda0cb48cd9cb6ef83bb81905d:n</title>
<path fill="none" stroke="black" d="M171.5,-497C171.5,-449.26 93.45,-472.74 80.64,-436.69"/>
<polygon fill="black" stroke="black" points="84.13,-436.33 79.11,-426.99 77.22,-437.42 84.13,-436.33"/>
</g>
<!-- start&#45;&gt;5f8f2b330b404524baca9bd51037ff9f -->
<g id="edge3" class="edge">
<title>start:s&#45;&gt;5f8f2b330b404524baca9bd51037ff9f:n</title>
<path fill="none" stroke="black" d="M194.25,-497C194.25,-465.83 167.26,-461.49 160.94,-436.61"/>
<polygon fill="black" stroke="black" points="164.45,-436.52 159.8,-427 157.5,-437.35 164.45,-436.52"/>
</g>
<!-- start&#45;&gt;68bea47647ed4903993da32df86e4fb9 -->
<g id="edge4" class="edge">
<title>start:s&#45;&gt;68bea47647ed4903993da32df86e4fb9:n</title>
<path fill="none" stroke="black" d="M217,-497C217,-468.54 229.99,-460.2 233.34,-436.93"/>
<polygon fill="black" stroke="black" points="236.83,-437.23 234.02,-427.01 229.85,-436.75 236.83,-437.23"/>
</g>
<!-- start&#45;&gt;68bea47647ed4903993da32df86e4fb9 -->
<g id="edge6" class="edge">
<title>start:s&#45;&gt;68bea47647ed4903993da32df86e4fb9:n</title>
<path fill="none" stroke="black" d="M262.5,-497C262.5,-469.44 262.03,-459.81 261.91,-437.01"/>
<polygon fill="black" stroke="black" points="265.41,-437 261.88,-427.01 258.41,-437.02 265.41,-437"/>
</g>
<!-- start&#45;&gt;68bea47647ed4903993da32df86e4fb9 -->
<g id="edge7" class="edge">
<title>start:s&#45;&gt;68bea47647ed4903993da32df86e4fb9:n</title>
<path fill="none" stroke="black" d="M285.25,-497C285.25,-469.27 288.57,-459.75 289.43,-436.72"/>
<polygon fill="black" stroke="black" points="292.92,-437.07 289.6,-427.01 285.92,-436.95 292.92,-437.07"/>
</g>
<!-- 2f81a928f2334884a59fa71a54216bb9 -->
<g id="node7" class="node">
<title>2f81a928f2334884a59fa71a54216bb9</title>
<ellipse fill="black" stroke="black" cx="324" cy="-367.25" rx="1.8" ry="1.8"/>
</g>
<!-- start&#45;&gt;2f81a928f2334884a59fa71a54216bb9 -->
<g id="edge5" class="edge">
<title>start:s&#45;&gt;2f81a928f2334884a59fa71a54216bb9</title>
<path fill="none" stroke="black" d="M239.75,-497C239.75,-458.83 294.73,-489.19 316,-457.5 331.74,-434.04 329.18,-398.95 326.35,-380.54"/>
<polygon fill="black" stroke="black" points="329.8,-379.91 324.51,-370.73 322.92,-381.2 329.8,-379.91"/>
</g>
</g>
</svg>
