<?xml version="1.0" encoding="UTF-8" standalone="no"?>
<!DOCTYPE svg PUBLIC "-//W3C//DTD SVG 1.1//EN"
 "http://www.w3.org/Graphics/SVG/1.1/DTD/svg11.dtd">
<!-- Generated by graphviz version 12.2.1 (20241206.2353)
 -->
<!-- Pages: 1 -->
<svg width="120pt" height="473pt"
 viewBox="0.00 0.00 120.00 473.00" xmlns="http://www.w3.org/2000/svg" xmlns:xlink="http://www.w3.org/1999/xlink">
<g id="graph0" class="graph" transform="scale(1 1) rotate(0) translate(4 469)">
<polygon fill="white" stroke="none" points="-4,4 -4,-469 116,-469 116,4 -4,4"/>
<g id="clust1" class="cluster">
<title>cluster_34060b0cf6eb49cb88a4f6401e52f7bd</title>
<polygon fill="none" stroke="grey" points="8,-114 8,-375.5 104,-375.5 104,-114 8,-114"/>
<text text-anchor="middle" x="56" y="-358.2" font-family="Times New Roman,serif" font-size="14.00" fill="grey">Thread 0</text>
</g>
<!-- 332548901fbe4af38afefb4d353e362b -->
<g id="node1" class="node">
<title>332548901fbe4af38afefb4d353e362b</title>
<polygon fill="none" stroke="black" points="21.38,-269 21.38,-342.5 90.62,-342.5 90.62,-269 21.38,-269"/>
<text text-anchor="middle" x="55.75" y="-325.2" font-family="Times New Roman,serif" font-size="14.00"> </text>
<polyline fill="none" stroke="black" points="21.38,-318 90.62,-318"/>
<text text-anchor="middle" x="56" y="-300.7" font-family="Times New Roman,serif" font-size="14.00">2: Fork_0</text>
<polyline fill="none" stroke="black" points="21.38,-293.5 90.62,-293.5"/>
<text text-anchor="middle" x="38.25" y="-276.2" font-family="Times New Roman,serif" font-size="14.00"> </text>
<polyline fill="none" stroke="black" points="55.12,-269 55.12,-293.5"/>
<text text-anchor="middle" x="72.5" y="-276.2" font-family="Times New Roman,serif" font-size="14.00"> </text>
</g>
<!-- 59d14377fd1646b58c1d7744ff99b3eb -->
<g id="node2" class="node">
<title>59d14377fd1646b58c1d7744ff99b3eb</title>
<polygon fill="none" stroke="black" points="16.5,-122.5 16.5,-196 95.5,-196 95.5,-122.5 16.5,-122.5"/>
<text text-anchor="middle" x="35.88" y="-178.7" font-family="Times New Roman,serif" font-size="14.00"> </text>
<polyline fill="none" stroke="black" points="55.25,-171.5 55.25,-196"/>
<text text-anchor="middle" x="75.12" y="-178.7" font-family="Times New Roman,serif" font-size="14.00"> </text>
<polyline fill="none" stroke="black" points="16.5,-171.5 95.5,-171.5"/>
<text text-anchor="middle" x="56" y="-154.2" font-family="Times New Roman,serif" font-size="14.00">3: Fork_1</text>
<polyline fill="none" stroke="black" points="16.5,-147 95.5,-147"/>
<text text-anchor="middle" x="26.38" y="-129.7" font-family="Times New Roman,serif" font-size="14.00"> </text>
<polyline fill="none" stroke="black" points="36.25,-122.5 36.25,-147"/>
<text text-anchor="middle" x="46.12" y="-129.7" font-family="Times New Roman,serif" font-size="14.00"> </text>
<polyline fill="none" stroke="black" points="56,-122.5 56,-147"/>
<text text-anchor="middle" x="65.88" y="-129.7" font-family="Times New Roman,serif" font-size="14.00"> </text>
<polyline fill="none" stroke="black" points="75.75,-122.5 75.75,-147"/>
<text text-anchor="middle" x="85.62" y="-129.7" font-family="Times New Roman,serif" font-size="14.00"> </text>
</g>
<!-- 332548901fbe4af38afefb4d353e362b&#45;&gt;59d14377fd1646b58c1d7744ff99b3eb -->
<g id="edge2" class="edge">
<title>332548901fbe4af38afefb4d353e362b:s&#45;&gt;59d14377fd1646b58c1d7744ff99b3eb:n</title>
<path fill="none" stroke="black" d="M38.25,-268.5C38.25,-240.61 36.45,-230.97 35.98,-207.79"/>
<polygon fill="black" stroke="black" points="39.49,-207.98 35.89,-198.01 32.49,-208.05 39.49,-207.98"/>
</g>
<!-- 332548901fbe4af38afefb4d353e362b&#45;&gt;59d14377fd1646b58c1d7744ff99b3eb -->
<g id="edge3" class="edge">
<title>332548901fbe4af38afefb4d353e362b:s&#45;&gt;59d14377fd1646b58c1d7744ff99b3eb:n</title>
<path fill="none" stroke="black" d="M72.5,-268.5C72.5,-240.61 74.49,-230.97 75.01,-207.79"/>
<polygon fill="black" stroke="black" points="78.5,-208.05 75.11,-198.01 71.5,-207.98 78.5,-208.05"/>
</g>
<!-- end -->
<g id="node4" class="node">
<title>end</title>
<polygon fill="none" stroke="black" points="10.5,-0.5 10.5,-49.5 101.5,-49.5 101.5,-0.5 10.5,-0.5"/>
<text text-anchor="middle" x="21.88" y="-32.2" font-family="Times New Roman,serif" font-size="14.00">0</text>
<polyline fill="none" stroke="black" points="33.25,-25 33.25,-49.5"/>
<text text-anchor="middle" x="44.62" y="-32.2" font-family="Times New Roman,serif" font-size="14.00">1</text>
<polyline fill="none" stroke="black" points="56,-25 56,-49.5"/>
<text text-anchor="middle" x="67.38" y="-32.2" font-family="Times New Roman,serif" font-size="14.00">2</text>
<polyline fill="none" stroke="black" points="78.75,-25 78.75,-49.5"/>
<text text-anchor="middle" x="90.12" y="-32.2" font-family="Times New Roman,serif" font-size="14.00">3</text>
<polyline fill="none" stroke="black" points="10.5,-25 101.5,-25"/>
<text text-anchor="middle" x="56" y="-7.7" font-family="Times New Roman,serif" font-size="14.00">end</text>
</g>
<!-- 59d14377fd1646b58c1d7744ff99b3eb&#45;&gt;end -->
<g id="edge4" class="edge">
<title>59d14377fd1646b58c1d7744ff99b3eb:s&#45;&gt;end:n</title>
<path fill="none" stroke="black" d="M26.38,-121.5C26.38,-93.76 22.96,-84.26 22.08,-61.22"/>
<polygon fill="black" stroke="black" points="25.58,-61.45 21.9,-51.51 18.59,-61.58 25.58,-61.45"/>
</g>
<!-- 59d14377fd1646b58c1d7744ff99b3eb&#45;&gt;end -->
<g id="edge5" class="edge">
<title>59d14377fd1646b58c1d7744ff99b3eb:s&#45;&gt;end:n</title>
<path fill="none" stroke="black" d="M46.12,-121.5C46.12,-93.81 44.99,-84.23 44.69,-61.2"/>
<polygon fill="black" stroke="black" points="48.2,-61.49 44.63,-51.51 41.2,-61.53 48.2,-61.49"/>
</g>
<!-- 59d14377fd1646b58c1d7744ff99b3eb&#45;&gt;end -->
<g id="edge6" class="edge">
<title>59d14377fd1646b58c1d7744ff99b3eb:s&#45;&gt;end:n</title>
<path fill="none" stroke="black" d="M65.88,-121.5C65.88,-93.81 67.01,-84.23 67.31,-61.2"/>
<polygon fill="black" stroke="black" points="70.8,-61.53 67.37,-51.51 63.8,-61.49 70.8,-61.53"/>
</g>
<!-- 59d14377fd1646b58c1d7744ff99b3eb&#45;&gt;end -->
<g id="edge7" class="edge">
<title>59d14377fd1646b58c1d7744ff99b3eb:s&#45;&gt;end:n</title>
<path fill="none" stroke="black" d="M85.62,-121.5C85.62,-93.76 89.04,-84.26 89.92,-61.22"/>
<polygon fill="black" stroke="black" points="93.41,-61.58 90.1,-51.51 86.42,-61.45 93.41,-61.58"/>
</g>
<!-- start -->
<g id="node3" class="node">
<title>start</title>
<polygon fill="none" stroke="black" points="29,-415.5 29,-464.5 83,-464.5 83,-415.5 29,-415.5"/>
<text text-anchor="middle" x="55.62" y="-447.2" font-family="Times New Roman,serif" font-size="14.00">start</text>
<polyline fill="none" stroke="black" points="29,-440 82.25,-440"/>
<text text-anchor="middle" x="55.38" y="-422.7" font-family="Times New Roman,serif" font-size="14.00">0</text>
</g>
<!-- start&#45;&gt;332548901fbe4af38afefb4d353e362b -->
<g id="edge1" class="edge">
<title>start:s&#45;&gt;332548901fbe4af38afefb4d353e362b:n</title>
<path fill="none" stroke="black" d="M55.38,-415C55.38,-387.44 55.66,-377.81 55.73,-355.01"/>
<polygon fill="black" stroke="black" points="59.23,-355.02 55.75,-345.01 52.23,-355.01 59.23,-355.02"/>
</g>
</g>
</svg>
