<?xml version="1.0" encoding="UTF-8" standalone="no"?>
<!DOCTYPE svg PUBLIC "-//W3C//DTD SVG 1.1//EN"
 "http://www.w3.org/Graphics/SVG/1.1/DTD/svg11.dtd">
<!-- Generated by graphviz version 12.2.1 (20241206.2353)
 -->
<!-- Pages: 1 -->
<svg width="124pt" height="743pt"
 viewBox="0.00 0.00 124.00 742.50" xmlns="http://www.w3.org/2000/svg" xmlns:xlink="http://www.w3.org/1999/xlink">
<g id="graph0" class="graph" transform="scale(1 1) rotate(0) translate(4 738.5)">
<polygon fill="white" stroke="none" points="-4,4 -4,-738.5 120,-738.5 120,4 -4,4"/>
<g id="clust1" class="cluster">
<title>cluster_7dccb116f4ec46af830d98c0acaf0492</title>
<polygon fill="none" stroke="grey" points="8,-489 8,-645 108,-645 108,-489 8,-489"/>
<text text-anchor="middle" x="58" y="-627.7" font-family="Times New Roman,serif" font-size="14.00" fill="grey">Thread 0</text>
</g>
<g id="clust2" class="cluster">
<title>cluster_3404a0dea51f4e34a210eac11779400b</title>
<polygon fill="none" stroke="grey" points="8,-301.5 8,-457.5 108,-457.5 108,-301.5 8,-301.5"/>
<text text-anchor="middle" x="58" y="-440.2" font-family="Times New Roman,serif" font-size="14.00" fill="grey">Thread 1</text>
</g>
<g id="clust3" class="cluster">
<title>cluster_b67f08b464b449b194ef47038eeb6471</title>
<polygon fill="none" stroke="grey" points="8,-114 8,-270 108,-270 108,-114 8,-114"/>
<text text-anchor="middle" x="58" y="-252.7" font-family="Times New Roman,serif" font-size="14.00" fill="grey">Thread 2</text>
</g>
<!-- fd260036f7d74bacab957af6e8ccbcce -->
<g id="node1" class="node">
<title>fd260036f7d74bacab957af6e8ccbcce</title>
<polygon fill="none" stroke="black" points="16.25,-497.5 16.25,-612 99.75,-612 99.75,-497.5 16.25,-497.5"/>
<text text-anchor="middle" x="57.62" y="-594.7" font-family="Times New Roman,serif" font-size="14.00"> </text>
<polyline fill="none" stroke="black" points="16.25,-587.5 99.75,-587.5"/>
<text text-anchor="middle" x="58" y="-570.2" font-family="Times New Roman,serif" font-size="14.00">2: Biquad_0</text>
<polyline fill="none" stroke="black" points="16.25,-563 99.75,-563"/>
<text text-anchor="middle" x="58" y="-545.7" font-family="Times New Roman,serif" font-size="14.00">filter_type: </text>
<text text-anchor="middle" x="58" y="-529.2" font-family="Times New Roman,serif" font-size="14.00">type: bypass</text>
<polyline fill="none" stroke="black" points="16.25,-522 99.75,-522"/>
<text text-anchor="middle" x="57.62" y="-504.7" font-family="Times New Roman,serif" font-size="14.00"> </text>
</g>
<!-- bbffff2f73794aeeb469a1d88b02e9f6 -->
<g id="node2" class="node">
<title>bbffff2f73794aeeb469a1d88b02e9f6</title>
<polygon fill="none" stroke="black" points="16.25,-310 16.25,-424.5 99.75,-424.5 99.75,-310 16.25,-310"/>
<text text-anchor="middle" x="57.62" y="-407.2" font-family="Times New Roman,serif" font-size="14.00"> </text>
<polyline fill="none" stroke="black" points="16.25,-400 99.75,-400"/>
<text text-anchor="middle" x="58" y="-382.7" font-family="Times New Roman,serif" font-size="14.00">4: Biquad_1</text>
<polyline fill="none" stroke="black" points="16.25,-375.5 99.75,-375.5"/>
<text text-anchor="middle" x="58" y="-358.2" font-family="Times New Roman,serif" font-size="14.00">filter_type: </text>
<text text-anchor="middle" x="58" y="-341.7" font-family="Times New Roman,serif" font-size="14.00">type: bypass</text>
<polyline fill="none" stroke="black" points="16.25,-334.5 99.75,-334.5"/>
<text text-anchor="middle" x="57.62" y="-317.2" font-family="Times New Roman,serif" font-size="14.00"> </text>
</g>
<!-- fd260036f7d74bacab957af6e8ccbcce&#45;&gt;bbffff2f73794aeeb469a1d88b02e9f6 -->
<g id="edge2" class="edge">
<title>fd260036f7d74bacab957af6e8ccbcce:s&#45;&gt;bbffff2f73794aeeb469a1d88b02e9f6:n</title>
<path fill="none" stroke="black" d="M57.62,-496.5C57.62,-469.14 57.62,-459.57 57.62,-436.93"/>
<polygon fill="black" stroke="black" points="61.13,-437.01 57.63,-427.01 54.13,-437.01 61.13,-437.01"/>
</g>
<!-- 540b25f562304075921a377eae641ad3 -->
<g id="node3" class="node">
<title>540b25f562304075921a377eae641ad3</title>
<polygon fill="none" stroke="black" points="16.25,-122.5 16.25,-237 99.75,-237 99.75,-122.5 16.25,-122.5"/>
<text text-anchor="middle" x="57.62" y="-219.7" font-family="Times New Roman,serif" font-size="14.00"> </text>
<polyline fill="none" stroke="black" points="16.25,-212.5 99.75,-212.5"/>
<text text-anchor="middle" x="58" y="-195.2" font-family="Times New Roman,serif" font-size="14.00">6: Biquad_2</text>
<polyline fill="none" stroke="black" points="16.25,-188 99.75,-188"/>
<text text-anchor="middle" x="58" y="-170.7" font-family="Times New Roman,serif" font-size="14.00">filter_type: </text>
<text text-anchor="middle" x="58" y="-154.2" font-family="Times New Roman,serif" font-size="14.00">type: bypass</text>
<polyline fill="none" stroke="black" points="16.25,-147 99.75,-147"/>
<text text-anchor="middle" x="57.62" y="-129.7" font-family="Times New Roman,serif" font-size="14.00"> </text>
</g>
<!-- bbffff2f73794aeeb469a1d88b02e9f6&#45;&gt;540b25f562304075921a377eae641ad3 -->
<g id="edge3" class="edge">
<title>bbffff2f73794aeeb469a1d88b02e9f6:s&#45;&gt;540b25f562304075921a377eae641ad3:n</title>
<path fill="none" stroke="black" d="M57.62,-309C57.62,-281.64 57.62,-272.07 57.62,-249.43"/>
<polygon fill="black" stroke="black" points="61.13,-249.51 57.63,-239.51 54.13,-249.51 61.13,-249.51"/>
</g>
<!-- end -->
<g id="node5" class="node">
<title>end</title>
<polygon fill="none" stroke="black" points="31,-0.5 31,-49.5 85,-49.5 85,-0.5 31,-0.5"/>
<text text-anchor="middle" x="57.38" y="-32.2" font-family="Times New Roman,serif" font-size="14.00">0</text>
<polyline fill="none" stroke="black" points="31,-25 84.5,-25"/>
<text text-anchor="middle" x="57.75" y="-7.7" font-family="Times New Roman,serif" font-size="14.00">end</text>
</g>
<!-- 540b25f562304075921a377eae641ad3&#45;&gt;end -->
<g id="edge4" class="edge">
<title>540b25f562304075921a377eae641ad3:s&#45;&gt;end:n</title>
<path fill="none" stroke="black" d="M57.62,-121.5C57.62,-93.94 57.44,-84.31 57.39,-61.51"/>
<polygon fill="black" stroke="black" points="60.89,-61.51 57.38,-51.51 53.89,-61.52 60.89,-61.51"/>
</g>
<!-- start -->
<g id="node4" class="node">
<title>start</title>
<polygon fill="none" stroke="black" points="31,-685 31,-734 85,-734 85,-685 31,-685"/>
<text text-anchor="middle" x="57.62" y="-716.7" font-family="Times New Roman,serif" font-size="14.00">start</text>
<polyline fill="none" stroke="black" points="31,-709.5 84.25,-709.5"/>
<text text-anchor="middle" x="57.38" y="-692.2" font-family="Times New Roman,serif" font-size="14.00">0</text>
</g>
<!-- start&#45;&gt;fd260036f7d74bacab957af6e8ccbcce -->
<g id="edge1" class="edge">
<title>start:s&#45;&gt;fd260036f7d74bacab957af6e8ccbcce:n</title>
<path fill="none" stroke="black" d="M57.38,-684.5C57.38,-656.94 57.56,-647.31 57.61,-624.51"/>
<polygon fill="black" stroke="black" points="61.11,-624.52 57.62,-614.51 54.11,-624.51 61.11,-624.52"/>
</g>
</g>
</svg>
