<?xml version="1.0" encoding="UTF-8" standalone="no"?>
<!DOCTYPE svg PUBLIC "-//W3C//DTD SVG 1.1//EN"
 "http://www.w3.org/Graphics/SVG/1.1/DTD/svg11.dtd">
<!-- Generated by graphviz version 12.2.1 (20241206.2353)
 -->
<!-- Pages: 1 -->
<svg width="230pt" height="555pt"
 viewBox="0.00 0.00 230.00 555.00" xmlns="http://www.w3.org/2000/svg" xmlns:xlink="http://www.w3.org/1999/xlink">
<g id="graph0" class="graph" transform="scale(1 1) rotate(0) translate(4 551)">
<polygon fill="white" stroke="none" points="-4,4 -4,-551 226,-551 226,4 -4,4"/>
<g id="clust1" class="cluster">
<title>cluster_9fa03a3b50db4b63b5506cb9141a2750</title>
<polygon fill="none" stroke="grey" points="8,-301.5 8,-457.5 108,-457.5 108,-301.5 8,-301.5"/>
<text text-anchor="middle" x="58" y="-440.2" font-family="Times New Roman,serif" font-size="14.00" fill="grey">Thread 0</text>
</g>
<g id="clust2" class="cluster">
<title>cluster_715c255746144fb49eb8295a63cf7e8a</title>
<polygon fill="none" stroke="grey" points="116,-322 116,-437 214,-437 214,-322 116,-322"/>
<text text-anchor="middle" x="165" y="-419.7" font-family="Times New Roman,serif" font-size="14.00" fill="grey">Thread 1</text>
</g>
<g id="clust3" class="cluster">
<title>cluster_339a5a31d40f4f5ab28af2071e69e811</title>
<polygon fill="none" stroke="grey" points="61,-114 61,-270 161,-270 161,-114 61,-114"/>
<text text-anchor="middle" x="111" y="-252.7" font-family="Times New Roman,serif" font-size="14.00" fill="grey">Thread 2</text>
</g>
<!-- addd83d1fc20459eb0b3b34cbdead483 -->
<g id="node1" class="node">
<title>addd83d1fc20459eb0b3b34cbdead483</title>
<polygon fill="none" stroke="black" points="16.25,-310 16.25,-424.5 99.75,-424.5 99.75,-310 16.25,-310"/>
<text text-anchor="middle" x="57.62" y="-407.2" font-family="Times New Roman,serif" font-size="14.00"> </text>
<polyline fill="none" stroke="black" points="16.25,-400 99.75,-400"/>
<text text-anchor="middle" x="58" y="-382.7" font-family="Times New Roman,serif" font-size="14.00">2: Biquad_0</text>
<polyline fill="none" stroke="black" points="16.25,-375.5 99.75,-375.5"/>
<text text-anchor="middle" x="58" y="-358.2" font-family="Times New Roman,serif" font-size="14.00">filter_type: </text>
<text text-anchor="middle" x="58" y="-341.7" font-family="Times New Roman,serif" font-size="14.00">type: bypass</text>
<polyline fill="none" stroke="black" points="16.25,-334.5 99.75,-334.5"/>
<text text-anchor="middle" x="57.62" y="-317.2" font-family="Times New Roman,serif" font-size="14.00"> </text>
</g>
<!-- 16ebb0098ef041108b40ab5dc53c13f3 -->
<g id="node3" class="node">
<title>16ebb0098ef041108b40ab5dc53c13f3</title>
<polygon fill="none" stroke="black" points="69.25,-122.5 69.25,-237 152.75,-237 152.75,-122.5 69.25,-122.5"/>
<text text-anchor="middle" x="90.12" y="-219.7" font-family="Times New Roman,serif" font-size="14.00"> </text>
<polyline fill="none" stroke="black" points="111,-212.5 111,-237"/>
<text text-anchor="middle" x="131.88" y="-219.7" font-family="Times New Roman,serif" font-size="14.00"> </text>
<polyline fill="none" stroke="black" points="69.25,-212.5 152.75,-212.5"/>
<text text-anchor="middle" x="111" y="-195.2" font-family="Times New Roman,serif" font-size="14.00">6: Biquad_1</text>
<polyline fill="none" stroke="black" points="69.25,-188 152.75,-188"/>
<text text-anchor="middle" x="111" y="-170.7" font-family="Times New Roman,serif" font-size="14.00">filter_type: </text>
<text text-anchor="middle" x="111" y="-154.2" font-family="Times New Roman,serif" font-size="14.00">type: bypass</text>
<polyline fill="none" stroke="black" points="69.25,-147 152.75,-147"/>
<text text-anchor="middle" x="90.12" y="-129.7" font-family="Times New Roman,serif" font-size="14.00"> </text>
<polyline fill="none" stroke="black" points="111,-122.5 111,-147"/>
<text text-anchor="middle" x="131.88" y="-129.7" font-family="Times New Roman,serif" font-size="14.00"> </text>
</g>
<!-- addd83d1fc20459eb0b3b34cbdead483&#45;&gt;16ebb0098ef041108b40ab5dc53c13f3 -->
<g id="edge3" class="edge">
<title>addd83d1fc20459eb0b3b34cbdead483:s&#45;&gt;16ebb0098ef041108b40ab5dc53c13f3:n</title>
<path fill="none" stroke="black" d="M57.62,-309C57.62,-278.5 82.73,-273.58 88.81,-249.27"/>
<polygon fill="black" stroke="black" points="92.27,-249.84 89.95,-239.5 85.31,-249.03 92.27,-249.84"/>
</g>
<!-- e47c297e048a4a7c9961bf18eda961ba -->
<g id="node2" class="node">
<title>e47c297e048a4a7c9961bf18eda961ba</title>
<polygon fill="none" stroke="black" points="123.62,-330.5 123.62,-404 206.38,-404 206.38,-330.5 123.62,-330.5"/>
<text text-anchor="middle" x="165" y="-386.7" font-family="Times New Roman,serif" font-size="14.00"> </text>
<polyline fill="none" stroke="black" points="123.62,-379.5 206.38,-379.5"/>
<text text-anchor="middle" x="165" y="-362.2" font-family="Times New Roman,serif" font-size="14.00">4: Bypass_0</text>
<polyline fill="none" stroke="black" points="123.62,-355 206.38,-355"/>
<text text-anchor="middle" x="165" y="-337.7" font-family="Times New Roman,serif" font-size="14.00"> </text>
</g>
<!-- e47c297e048a4a7c9961bf18eda961ba&#45;&gt;16ebb0098ef041108b40ab5dc53c13f3 -->
<g id="edge4" class="edge">
<title>e47c297e048a4a7c9961bf18eda961ba:s&#45;&gt;16ebb0098ef041108b40ab5dc53c13f3:n</title>
<path fill="none" stroke="black" d="M165,-329.5C165,-290.31 137.79,-282.52 132.69,-249.22"/>
<polygon fill="black" stroke="black" points="136.2,-249.23 131.99,-239.51 129.22,-249.74 136.2,-249.23"/>
</g>
<!-- end -->
<g id="node5" class="node">
<title>end</title>
<polygon fill="none" stroke="black" points="84,-0.5 84,-49.5 138,-49.5 138,-0.5 84,-0.5"/>
<text text-anchor="middle" x="97.38" y="-32.2" font-family="Times New Roman,serif" font-size="14.00">0</text>
<polyline fill="none" stroke="black" points="110.75,-25 110.75,-49.5"/>
<text text-anchor="middle" x="124.12" y="-32.2" font-family="Times New Roman,serif" font-size="14.00">1</text>
<polyline fill="none" stroke="black" points="84,-25 137.5,-25"/>
<text text-anchor="middle" x="110.75" y="-7.7" font-family="Times New Roman,serif" font-size="14.00">end</text>
</g>
<!-- 16ebb0098ef041108b40ab5dc53c13f3&#45;&gt;end -->
<g id="edge5" class="edge">
<title>16ebb0098ef041108b40ab5dc53c13f3:s&#45;&gt;end:n</title>
<path fill="none" stroke="black" d="M90.12,-121.5C90.12,-93.68 95.63,-84.31 97.04,-61.24"/>
<polygon fill="black" stroke="black" points="100.54,-61.61 97.33,-51.51 93.54,-61.41 100.54,-61.61"/>
</g>
<!-- 16ebb0098ef041108b40ab5dc53c13f3&#45;&gt;end -->
<g id="edge6" class="edge">
<title>16ebb0098ef041108b40ab5dc53c13f3:s&#45;&gt;end:n</title>
<path fill="none" stroke="black" d="M131.88,-121.5C131.88,-93.66 125.99,-84.32 124.48,-61.25"/>
<polygon fill="black" stroke="black" points="127.98,-61.4 124.17,-51.51 120.99,-61.62 127.98,-61.4"/>
</g>
<!-- start -->
<g id="node4" class="node">
<title>start</title>
<polygon fill="none" stroke="black" points="84,-497.5 84,-546.5 138,-546.5 138,-497.5 84,-497.5"/>
<text text-anchor="middle" x="110.75" y="-529.2" font-family="Times New Roman,serif" font-size="14.00">start</text>
<polyline fill="none" stroke="black" points="84,-522 137.5,-522"/>
<text text-anchor="middle" x="97.38" y="-504.7" font-family="Times New Roman,serif" font-size="14.00">0</text>
<polyline fill="none" stroke="black" points="110.75,-497.5 110.75,-522"/>
<text text-anchor="middle" x="124.12" y="-504.7" font-family="Times New Roman,serif" font-size="14.00">1</text>
</g>
<!-- start&#45;&gt;addd83d1fc20459eb0b3b34cbdead483 -->
<g id="edge1" class="edge">
<title>start:s&#45;&gt;addd83d1fc20459eb0b3b34cbdead483:n</title>
<path fill="none" stroke="black" d="M97.38,-497C97.38,-464.9 66.4,-462.09 59.13,-436.86"/>
<polygon fill="black" stroke="black" points="62.61,-436.45 57.82,-427 55.67,-437.37 62.61,-436.45"/>
</g>
<!-- start&#45;&gt;e47c297e048a4a7c9961bf18eda961ba -->
<g id="edge2" class="edge">
<title>start:s&#45;&gt;e47c297e048a4a7c9961bf18eda961ba:n</title>
<path fill="none" stroke="black" d="M124.12,-497C124.12,-456.28 157.99,-450.54 164.07,-416.1"/>
<polygon fill="black" stroke="black" points="167.53,-416.77 164.87,-406.51 160.55,-416.18 167.53,-416.77"/>
</g>
</g>
</svg>
