<?xml version="1.0" encoding="UTF-8" standalone="no"?>
<!DOCTYPE svg PUBLIC "-//W3C//DTD SVG 1.1//EN"
 "http://www.w3.org/Graphics/SVG/1.1/DTD/svg11.dtd">
<!-- Generated by graphviz version 12.2.1 (20241206.2353)
 -->
<!-- Pages: 1 -->
<svg width="159pt" height="555pt"
 viewBox="0.00 0.00 159.00 555.00" xmlns="http://www.w3.org/2000/svg" xmlns:xlink="http://www.w3.org/1999/xlink">
<g id="graph0" class="graph" transform="scale(1 1) rotate(0) translate(4 551)">
<polygon fill="white" stroke="none" points="-4,4 -4,-551 155,-551 155,4 -4,4"/>
<g id="clust1" class="cluster">
<title>cluster_e6903db6fd444d1c98585401309db51a</title>
<polygon fill="none" stroke="grey" points="8,-301.5 8,-457.5 108,-457.5 108,-301.5 8,-301.5"/>
<text text-anchor="middle" x="58" y="-440.2" font-family="Times New Roman,serif" font-size="14.00" fill="grey">Thread 0</text>
</g>
<g id="clust2" class="cluster">
<title>cluster_052ef29601934d51b7ea1712c26b8e7a</title>
<polygon fill="none" stroke="grey" points="43,-114 43,-270 143,-270 143,-114 43,-114"/>
<text text-anchor="middle" x="93" y="-252.7" font-family="Times New Roman,serif" font-size="14.00" fill="grey">Thread 1</text>
</g>
<!-- 853016d4423a4b118123671b03fb6352 -->
<g id="node1" class="node">
<title>853016d4423a4b118123671b03fb6352</title>
<polygon fill="none" stroke="black" points="16.25,-310 16.25,-424.5 99.75,-424.5 99.75,-310 16.25,-310"/>
<text text-anchor="middle" x="57.62" y="-407.2" font-family="Times New Roman,serif" font-size="14.00"> </text>
<polyline fill="none" stroke="black" points="16.25,-400 99.75,-400"/>
<text text-anchor="middle" x="58" y="-382.7" font-family="Times New Roman,serif" font-size="14.00">2: Biquad_0</text>
<polyline fill="none" stroke="black" points="16.25,-375.5 99.75,-375.5"/>
<text text-anchor="middle" x="58" y="-358.2" font-family="Times New Roman,serif" font-size="14.00">filter_type: </text>
<text text-anchor="middle" x="58" y="-341.7" font-family="Times New Roman,serif" font-size="14.00">type: bypass</text>
<polyline fill="none" stroke="black" points="16.25,-334.5 99.75,-334.5"/>
<text text-anchor="middle" x="57.62" y="-317.2" font-family="Times New Roman,serif" font-size="14.00"> </text>
</g>
<!-- 9a2129a24c2c4e54bf2cc7d7bd1bd74c -->
<g id="node2" class="node">
<title>9a2129a24c2c4e54bf2cc7d7bd1bd74c</title>
<polygon fill="none" stroke="black" points="51.25,-122.5 51.25,-237 134.75,-237 134.75,-122.5 51.25,-122.5"/>
<text text-anchor="middle" x="72.12" y="-219.7" font-family="Times New Roman,serif" font-size="14.00"> </text>
<polyline fill="none" stroke="black" points="93,-212.5 93,-237"/>
<text text-anchor="middle" x="113.88" y="-219.7" font-family="Times New Roman,serif" font-size="14.00"> </text>
<polyline fill="none" stroke="black" points="51.25,-212.5 134.75,-212.5"/>
<text text-anchor="middle" x="93" y="-195.2" font-family="Times New Roman,serif" font-size="14.00">4: Biquad_1</text>
<polyline fill="none" stroke="black" points="51.25,-188 134.75,-188"/>
<text text-anchor="middle" x="93" y="-170.7" font-family="Times New Roman,serif" font-size="14.00">filter_type: </text>
<text text-anchor="middle" x="93" y="-154.2" font-family="Times New Roman,serif" font-size="14.00">type: bypass</text>
<polyline fill="none" stroke="black" points="51.25,-147 134.75,-147"/>
<text text-anchor="middle" x="72.12" y="-129.7" font-family="Times New Roman,serif" font-size="14.00"> </text>
<polyline fill="none" stroke="black" points="93,-122.5 93,-147"/>
<text text-anchor="middle" x="113.88" y="-129.7" font-family="Times New Roman,serif" font-size="14.00"> </text>
</g>
<!-- 853016d4423a4b118123671b03fb6352&#45;&gt;9a2129a24c2c4e54bf2cc7d7bd1bd74c -->
<g id="edge3" class="edge">
<title>853016d4423a4b118123671b03fb6352:s&#45;&gt;9a2129a24c2c4e54bf2cc7d7bd1bd74c:n</title>
<path fill="none" stroke="black" d="M57.62,-309C57.62,-280.94 68.63,-272.33 71.46,-249.29"/>
<polygon fill="black" stroke="black" points="74.95,-249.7 72.04,-239.51 67.96,-249.29 74.95,-249.7"/>
</g>
<!-- end -->
<g id="node4" class="node">
<title>end</title>
<polygon fill="none" stroke="black" points="66,-0.5 66,-49.5 120,-49.5 120,-0.5 66,-0.5"/>
<text text-anchor="middle" x="79.38" y="-32.2" font-family="Times New Roman,serif" font-size="14.00">0</text>
<polyline fill="none" stroke="black" points="92.75,-25 92.75,-49.5"/>
<text text-anchor="middle" x="106.12" y="-32.2" font-family="Times New Roman,serif" font-size="14.00">1</text>
<polyline fill="none" stroke="black" points="66,-25 119.5,-25"/>
<text text-anchor="middle" x="92.75" y="-7.7" font-family="Times New Roman,serif" font-size="14.00">end</text>
</g>
<!-- 9a2129a24c2c4e54bf2cc7d7bd1bd74c&#45;&gt;end -->
<g id="edge4" class="edge">
<title>9a2129a24c2c4e54bf2cc7d7bd1bd74c:s&#45;&gt;end:n</title>
<path fill="none" stroke="black" d="M72.12,-121.5C72.12,-93.68 77.63,-84.31 79.04,-61.24"/>
<polygon fill="black" stroke="black" points="82.54,-61.61 79.33,-51.51 75.54,-61.41 82.54,-61.61"/>
</g>
<!-- 9a2129a24c2c4e54bf2cc7d7bd1bd74c&#45;&gt;end -->
<g id="edge5" class="edge">
<title>9a2129a24c2c4e54bf2cc7d7bd1bd74c:s&#45;&gt;end:n</title>
<path fill="none" stroke="black" d="M113.88,-121.5C113.88,-93.66 107.99,-84.32 106.48,-61.25"/>
<polygon fill="black" stroke="black" points="109.98,-61.4 106.17,-51.51 102.99,-61.62 109.98,-61.4"/>
</g>
<!-- start -->
<g id="node3" class="node">
<title>start</title>
<polygon fill="none" stroke="black" points="66,-497.5 66,-546.5 120,-546.5 120,-497.5 66,-497.5"/>
<text text-anchor="middle" x="92.75" y="-529.2" font-family="Times New Roman,serif" font-size="14.00">start</text>
<polyline fill="none" stroke="black" points="66,-522 119.5,-522"/>
<text text-anchor="middle" x="79.38" y="-504.7" font-family="Times New Roman,serif" font-size="14.00">0</text>
<polyline fill="none" stroke="black" points="92.75,-497.5 92.75,-522"/>
<text text-anchor="middle" x="106.12" y="-504.7" font-family="Times New Roman,serif" font-size="14.00">1</text>
</g>
<!-- start&#45;&gt;853016d4423a4b118123671b03fb6352 -->
<g id="edge1" class="edge">
<title>start:s&#45;&gt;853016d4423a4b118123671b03fb6352:n</title>
<path fill="none" stroke="black" d="M79.38,-497C79.38,-467.94 62.72,-460.42 58.56,-436.75"/>
<polygon fill="black" stroke="black" points="62.07,-436.68 57.75,-427.01 55.09,-437.26 62.07,-436.68"/>
</g>
<!-- start&#45;&gt;9a2129a24c2c4e54bf2cc7d7bd1bd74c -->
<g id="edge2" class="edge">
<title>start:s&#45;&gt;9a2129a24c2c4e54bf2cc7d7bd1bd74c:n</title>
<path fill="none" stroke="black" d="M106.12,-497C106.12,-479.25 110.62,-475.19 112,-457.5 119.31,-364.13 114.31,-337.65 113.9,-249.38"/>
<polygon fill="black" stroke="black" points="117.4,-249.51 113.88,-239.51 110.4,-249.52 117.4,-249.51"/>
</g>
</g>
</svg>
