<?xml version="1.0" encoding="UTF-8" standalone="no"?>
<!DOCTYPE svg PUBLIC "-//W3C//DTD SVG 1.1//EN"
 "http://www.w3.org/Graphics/SVG/1.1/DTD/svg11.dtd">
<!-- Generated by graphviz version 12.2.1 (20241206.2353)
 -->
<!-- Pages: 1 -->
<svg width="224pt" height="555pt"
 viewBox="0.00 0.00 224.00 555.00" xmlns="http://www.w3.org/2000/svg" xmlns:xlink="http://www.w3.org/1999/xlink">
<g id="graph0" class="graph" transform="scale(1 1) rotate(0) translate(4 551)">
<polygon fill="white" stroke="none" points="-4,4 -4,-551 220,-551 220,4 -4,4"/>
<g id="clust1" class="cluster">
<title>cluster_fb4404fd272f4d6e81e37c01313fb286</title>
<polygon fill="none" stroke="grey" points="8,-301.5 8,-457.5 208,-457.5 208,-301.5 8,-301.5"/>
<text text-anchor="middle" x="108" y="-440.2" font-family="Times New Roman,serif" font-size="14.00" fill="grey">Thread 0</text>
</g>
<g id="clust2" class="cluster">
<title>cluster_d8debef68bf14a139e453cd5e60e894a</title>
<polygon fill="none" stroke="grey" points="58,-114 58,-270 158,-270 158,-114 58,-114"/>
<text text-anchor="middle" x="108" y="-252.7" font-family="Times New Roman,serif" font-size="14.00" fill="grey">Thread 1</text>
</g>
<!-- 432f839888c64b0e886f3068efbeb00f -->
<g id="node1" class="node">
<title>432f839888c64b0e886f3068efbeb00f</title>
<polygon fill="none" stroke="black" points="16.25,-310 16.25,-424.5 99.75,-424.5 99.75,-310 16.25,-310"/>
<text text-anchor="middle" x="57.62" y="-407.2" font-family="Times New Roman,serif" font-size="14.00"> </text>
<polyline fill="none" stroke="black" points="16.25,-400 99.75,-400"/>
<text text-anchor="middle" x="58" y="-382.7" font-family="Times New Roman,serif" font-size="14.00">2: Biquad_0</text>
<polyline fill="none" stroke="black" points="16.25,-375.5 99.75,-375.5"/>
<text text-anchor="middle" x="58" y="-358.2" font-family="Times New Roman,serif" font-size="14.00">filter_type: </text>
<text text-anchor="middle" x="58" y="-341.7" font-family="Times New Roman,serif" font-size="14.00">type: bypass</text>
<polyline fill="none" stroke="black" points="16.25,-334.5 99.75,-334.5"/>
<text text-anchor="middle" x="57.62" y="-317.2" font-family="Times New Roman,serif" font-size="14.00"> </text>
</g>
<!-- ca24f2ba39734dbba653a252011874f3 -->
<g id="node3" class="node">
<title>ca24f2ba39734dbba653a252011874f3</title>
<polygon fill="none" stroke="black" points="66.25,-122.5 66.25,-237 149.75,-237 149.75,-122.5 66.25,-122.5"/>
<text text-anchor="middle" x="87.12" y="-219.7" font-family="Times New Roman,serif" font-size="14.00"> </text>
<polyline fill="none" stroke="black" points="108,-212.5 108,-237"/>
<text text-anchor="middle" x="128.88" y="-219.7" font-family="Times New Roman,serif" font-size="14.00"> </text>
<polyline fill="none" stroke="black" points="66.25,-212.5 149.75,-212.5"/>
<text text-anchor="middle" x="108" y="-195.2" font-family="Times New Roman,serif" font-size="14.00">5: Biquad_1</text>
<polyline fill="none" stroke="black" points="66.25,-188 149.75,-188"/>
<text text-anchor="middle" x="108" y="-170.7" font-family="Times New Roman,serif" font-size="14.00">filter_type: </text>
<text text-anchor="middle" x="108" y="-154.2" font-family="Times New Roman,serif" font-size="14.00">type: bypass</text>
<polyline fill="none" stroke="black" points="66.25,-147 149.75,-147"/>
<text text-anchor="middle" x="87.12" y="-129.7" font-family="Times New Roman,serif" font-size="14.00"> </text>
<polyline fill="none" stroke="black" points="108,-122.5 108,-147"/>
<text text-anchor="middle" x="128.88" y="-129.7" font-family="Times New Roman,serif" font-size="14.00"> </text>
</g>
<!-- 432f839888c64b0e886f3068efbeb00f&#45;&gt;ca24f2ba39734dbba653a252011874f3 -->
<g id="edge3" class="edge">
<title>432f839888c64b0e886f3068efbeb00f:s&#45;&gt;ca24f2ba39734dbba653a252011874f3:n</title>
<path fill="none" stroke="black" d="M57.62,-309C57.62,-278.97 80.41,-273.28 85.93,-249.14"/>
<polygon fill="black" stroke="black" points="89.38,-249.82 86.96,-239.5 82.42,-249.08 89.38,-249.82"/>
</g>
<!-- 280217c22f874ce38519f5f937b10027 -->
<g id="node2" class="node">
<title>280217c22f874ce38519f5f937b10027</title>
<polygon fill="none" stroke="black" points="117.62,-330.5 117.62,-404 200.38,-404 200.38,-330.5 117.62,-330.5"/>
<text text-anchor="middle" x="159" y="-386.7" font-family="Times New Roman,serif" font-size="14.00"> </text>
<polyline fill="none" stroke="black" points="117.62,-379.5 200.38,-379.5"/>
<text text-anchor="middle" x="159" y="-362.2" font-family="Times New Roman,serif" font-size="14.00">3: Bypass_0</text>
<polyline fill="none" stroke="black" points="117.62,-355 200.38,-355"/>
<text text-anchor="middle" x="159" y="-337.7" font-family="Times New Roman,serif" font-size="14.00"> </text>
</g>
<!-- 280217c22f874ce38519f5f937b10027&#45;&gt;ca24f2ba39734dbba653a252011874f3 -->
<g id="edge4" class="edge">
<title>280217c22f874ce38519f5f937b10027:s&#45;&gt;ca24f2ba39734dbba653a252011874f3:n</title>
<path fill="none" stroke="black" d="M159,-329.5C159,-290.7 134.26,-282.24 129.62,-249.13"/>
<polygon fill="black" stroke="black" points="133.14,-249.25 128.98,-239.51 126.15,-249.72 133.14,-249.25"/>
</g>
<!-- end -->
<g id="node5" class="node">
<title>end</title>
<polygon fill="none" stroke="black" points="81,-0.5 81,-49.5 135,-49.5 135,-0.5 81,-0.5"/>
<text text-anchor="middle" x="94.38" y="-32.2" font-family="Times New Roman,serif" font-size="14.00">0</text>
<polyline fill="none" stroke="black" points="107.75,-25 107.75,-49.5"/>
<text text-anchor="middle" x="121.12" y="-32.2" font-family="Times New Roman,serif" font-size="14.00">1</text>
<polyline fill="none" stroke="black" points="81,-25 134.5,-25"/>
<text text-anchor="middle" x="107.75" y="-7.7" font-family="Times New Roman,serif" font-size="14.00">end</text>
</g>
<!-- ca24f2ba39734dbba653a252011874f3&#45;&gt;end -->
<g id="edge5" class="edge">
<title>ca24f2ba39734dbba653a252011874f3:s&#45;&gt;end:n</title>
<path fill="none" stroke="black" d="M87.12,-121.5C87.12,-93.68 92.63,-84.31 94.04,-61.24"/>
<polygon fill="black" stroke="black" points="97.54,-61.61 94.33,-51.51 90.54,-61.41 97.54,-61.61"/>
</g>
<!-- ca24f2ba39734dbba653a252011874f3&#45;&gt;end -->
<g id="edge6" class="edge">
<title>ca24f2ba39734dbba653a252011874f3:s&#45;&gt;end:n</title>
<path fill="none" stroke="black" d="M128.88,-121.5C128.88,-93.66 122.99,-84.32 121.48,-61.25"/>
<polygon fill="black" stroke="black" points="124.98,-61.4 121.17,-51.51 117.99,-61.62 124.98,-61.4"/>
</g>
<!-- start -->
<g id="node4" class="node">
<title>start</title>
<polygon fill="none" stroke="black" points="81,-497.5 81,-546.5 135,-546.5 135,-497.5 81,-497.5"/>
<text text-anchor="middle" x="107.75" y="-529.2" font-family="Times New Roman,serif" font-size="14.00">start</text>
<polyline fill="none" stroke="black" points="81,-522 134.5,-522"/>
<text text-anchor="middle" x="94.38" y="-504.7" font-family="Times New Roman,serif" font-size="14.00">0</text>
<polyline fill="none" stroke="black" points="107.75,-497.5 107.75,-522"/>
<text text-anchor="middle" x="121.12" y="-504.7" font-family="Times New Roman,serif" font-size="14.00">1</text>
</g>
<!-- start&#45;&gt;432f839888c64b0e886f3068efbeb00f -->
<g id="edge1" class="edge">
<title>start:s&#45;&gt;432f839888c64b0e886f3068efbeb00f:n</title>
<path fill="none" stroke="black" d="M94.38,-497C94.38,-465.46 65.73,-461.73 59.02,-436.71"/>
<polygon fill="black" stroke="black" points="62.52,-436.49 57.81,-427 55.58,-437.36 62.52,-436.49"/>
</g>
<!-- start&#45;&gt;280217c22f874ce38519f5f937b10027 -->
<g id="edge2" class="edge">
<title>start:s&#45;&gt;280217c22f874ce38519f5f937b10027:n</title>
<path fill="none" stroke="black" d="M121.12,-497C121.12,-456.93 152.23,-450.24 158.06,-416.43"/>
<polygon fill="black" stroke="black" points="161.55,-416.76 158.88,-406.51 154.57,-416.19 161.55,-416.76"/>
</g>
</g>
</svg>
